<svg width="128" height="36" viewBox="0 0 128 36" fill="none" xmlns="http://www.w3.org/2000/svg">
<rect width="128" height="36" rx="8" fill="white"/>
<path d="M39.9397 23C39.8224 23 39.7317 22.968 39.6677 22.904C39.6037 22.8293 39.5717 22.7387 39.5717 22.632V12.168C39.5717 12.0613 39.6037 11.976 39.6677 11.912C39.7317 11.8373 39.8224 11.8 39.9397 11.8H40.7877C40.8944 11.8 40.9797 11.8373 41.0437 11.912C41.1077 11.976 41.1397 12.0613 41.1397 12.168V21.608H46.4677C46.585 21.608 46.6757 21.6453 46.7397 21.72C46.8037 21.784 46.8357 21.8747 46.8357 21.992V22.632C46.8357 22.7387 46.8037 22.8293 46.7397 22.904C46.6757 22.968 46.585 23 46.4677 23H39.9397ZM51.6154 23.16C50.8048 23.16 50.1274 23.0053 49.5834 22.696C49.0394 22.3867 48.6234 21.96 48.3354 21.416C48.0474 20.8613 47.8874 20.232 47.8554 19.528C47.8448 19.3467 47.8394 19.1173 47.8394 18.84C47.8394 18.552 47.8448 18.3227 47.8554 18.152C47.8874 17.4373 48.0474 16.808 48.3354 16.264C48.6341 15.72 49.0554 15.2933 49.5994 14.984C50.1434 14.6747 50.8154 14.52 51.6154 14.52C52.4154 14.52 53.0874 14.6747 53.6314 14.984C54.1754 15.2933 54.5914 15.72 54.8794 16.264C55.1781 16.808 55.3434 17.4373 55.3754 18.152C55.3861 18.3227 55.3914 18.552 55.3914 18.84C55.3914 19.1173 55.3861 19.3467 55.3754 19.528C55.3434 20.232 55.1834 20.8613 54.8954 21.416C54.6074 21.96 54.1914 22.3867 53.6474 22.696C53.1034 23.0053 52.4261 23.16 51.6154 23.16ZM51.6154 21.928C52.2768 21.928 52.8048 21.72 53.1994 21.304C53.5941 20.8773 53.8074 20.2587 53.8394 19.448C53.8501 19.288 53.8554 19.0853 53.8554 18.84C53.8554 18.5947 53.8501 18.392 53.8394 18.232C53.8074 17.4213 53.5941 16.808 53.1994 16.392C52.8048 15.9653 52.2768 15.752 51.6154 15.752C50.9541 15.752 50.4208 15.9653 50.0154 16.392C49.6208 16.808 49.4128 17.4213 49.3914 18.232C49.3808 18.392 49.3754 18.5947 49.3754 18.84C49.3754 19.0853 49.3808 19.288 49.3914 19.448C49.4128 20.2587 49.6208 20.8773 50.0154 21.304C50.4208 21.72 50.9541 21.928 51.6154 21.928ZM60.8029 26.52C60.0776 26.52 59.4803 26.424 59.0109 26.232C58.5523 26.04 58.1896 25.8053 57.9229 25.528C57.6669 25.2613 57.4803 24.9893 57.3629 24.712C57.2563 24.4453 57.1976 24.232 57.1869 24.072C57.1763 23.9653 57.2083 23.8747 57.2829 23.8C57.3683 23.7253 57.4589 23.688 57.5549 23.688H58.3229C58.4189 23.688 58.4989 23.7093 58.5629 23.752C58.6269 23.7947 58.6803 23.8853 58.7229 24.024C58.7869 24.184 58.8829 24.36 59.0109 24.552C59.1389 24.7547 59.3363 24.9253 59.6029 25.064C59.8696 25.2133 60.2429 25.288 60.7229 25.288C61.2243 25.288 61.6456 25.2187 61.9869 25.08C62.3283 24.952 62.5843 24.7173 62.7549 24.376C62.9363 24.0453 63.0269 23.5867 63.0269 23V21.912C62.7709 22.2427 62.4349 22.52 62.0189 22.744C61.6029 22.9573 61.0803 23.064 60.4509 23.064C59.8536 23.064 59.3416 22.9627 58.9149 22.76C58.4883 22.5467 58.1363 22.264 57.8589 21.912C57.5923 21.5493 57.3896 21.1387 57.2509 20.68C57.1229 20.2213 57.0483 19.7413 57.0269 19.24C57.0163 18.9413 57.0163 18.648 57.0269 18.36C57.0483 17.8587 57.1229 17.3787 57.2509 16.92C57.3896 16.4613 57.5923 16.0507 57.8589 15.688C58.1363 15.3253 58.4883 15.0427 58.9149 14.84C59.3416 14.6267 59.8536 14.52 60.4509 14.52C61.0909 14.52 61.6189 14.6427 62.0349 14.888C62.4616 15.1227 62.8083 15.4107 63.0749 15.752V15.064C63.0749 14.9573 63.1069 14.8667 63.1709 14.792C63.2456 14.7173 63.3363 14.68 63.4429 14.68H64.1789C64.2856 14.68 64.3763 14.7173 64.4509 14.792C64.5256 14.8667 64.5629 14.9573 64.5629 15.064V22.824C64.5629 23.5387 64.4403 24.1733 64.1949 24.728C63.9603 25.2827 63.5656 25.72 63.0109 26.04C62.4669 26.36 61.7309 26.52 60.8029 26.52ZM60.7709 21.784C61.3043 21.784 61.7309 21.6613 62.0509 21.416C62.3816 21.1707 62.6216 20.8613 62.7709 20.488C62.9309 20.1147 63.0163 19.736 63.0269 19.352C63.0376 19.2027 63.0429 19.0213 63.0429 18.808C63.0429 18.584 63.0376 18.3973 63.0269 18.248C63.0163 17.864 62.9309 17.4853 62.7709 17.112C62.6216 16.7387 62.3816 16.4293 62.0509 16.184C61.7309 15.9387 61.3043 15.816 60.7709 15.816C60.2376 15.816 59.8109 15.9387 59.4909 16.184C59.1709 16.4187 58.9416 16.7333 58.8029 17.128C58.6643 17.512 58.5843 17.928 58.5629 18.376C58.5523 18.6533 58.5523 18.936 58.5629 19.224C58.5843 19.672 58.6643 20.0933 58.8029 20.488C58.9416 20.872 59.1709 21.1867 59.4909 21.432C59.8109 21.6667 60.2376 21.784 60.7709 21.784ZM70.3498 23.16C69.5391 23.16 68.8618 23.0053 68.3178 22.696C67.7738 22.3867 67.3578 21.96 67.0698 21.416C66.7818 20.8613 66.6218 20.232 66.5898 19.528C66.5791 19.3467 66.5738 19.1173 66.5738 18.84C66.5738 18.552 66.5791 18.3227 66.5898 18.152C66.6218 17.4373 66.7818 16.808 67.0698 16.264C67.3685 15.72 67.7898 15.2933 68.3338 14.984C68.8778 14.6747 69.5498 14.52 70.3498 14.52C71.1498 14.52 71.8218 14.6747 72.3658 14.984C72.9098 15.2933 73.3258 15.72 73.6138 16.264C73.9125 16.808 74.0778 17.4373 74.1098 18.152C74.1205 18.3227 74.1258 18.552 74.1258 18.84C74.1258 19.1173 74.1205 19.3467 74.1098 19.528C74.0778 20.232 73.9178 20.8613 73.6298 21.416C73.3418 21.96 72.9258 22.3867 72.3818 22.696C71.8378 23.0053 71.1605 23.16 70.3498 23.16ZM70.3498 21.928C71.0111 21.928 71.5391 21.72 71.9338 21.304C72.3285 20.8773 72.5418 20.2587 72.5738 19.448C72.5845 19.288 72.5898 19.0853 72.5898 18.84C72.5898 18.5947 72.5845 18.392 72.5738 18.232C72.5418 17.4213 72.3285 16.808 71.9338 16.392C71.5391 15.9653 71.0111 15.752 70.3498 15.752C69.6885 15.752 69.1551 15.9653 68.7498 16.392C68.3551 16.808 68.1471 17.4213 68.1258 18.232C68.1151 18.392 68.1098 18.5947 68.1098 18.84C68.1098 19.0853 68.1151 19.288 68.1258 19.448C68.1471 20.2587 68.3551 20.8773 68.7498 21.304C69.1551 21.72 69.6885 21.928 70.3498 21.928ZM79.2333 23.16C78.5506 23.16 77.9693 23.0107 77.4893 22.712C77.02 22.4027 76.6626 21.976 76.4173 21.432C76.172 20.888 76.0493 20.264 76.0493 19.56V15.048C76.0493 14.9413 76.0813 14.856 76.1453 14.792C76.22 14.7173 76.3106 14.68 76.4173 14.68H77.2173C77.324 14.68 77.4093 14.7173 77.4733 14.792C77.548 14.856 77.5853 14.9413 77.5853 15.048V19.48C77.5853 21.0693 78.2786 21.864 79.6653 21.864C80.3266 21.864 80.8546 21.656 81.2493 21.24C81.6546 20.8133 81.8573 20.2267 81.8573 19.48V15.048C81.8573 14.9413 81.8893 14.856 81.9533 14.792C82.028 14.7173 82.1186 14.68 82.2253 14.68H83.0093C83.1266 14.68 83.2173 14.7173 83.2813 14.792C83.3453 14.856 83.3773 14.9413 83.3773 15.048V22.632C83.3773 22.7387 83.3453 22.8293 83.2813 22.904C83.2173 22.968 83.1266 23 83.0093 23H82.2733C82.1666 23 82.076 22.968 82.0013 22.904C81.9373 22.8293 81.9053 22.7387 81.9053 22.632V21.928C81.6173 22.3013 81.2653 22.6 80.8493 22.824C80.444 23.048 79.9053 23.16 79.2333 23.16ZM89.0023 23C88.405 23 87.9196 22.888 87.5463 22.664C87.173 22.4293 86.901 22.104 86.7303 21.688C86.5596 21.2613 86.4743 20.76 86.4743 20.184V15.96H85.2263C85.1196 15.96 85.029 15.928 84.9543 15.864C84.8903 15.7893 84.8583 15.6987 84.8583 15.592V15.048C84.8583 14.9413 84.8903 14.856 84.9543 14.792C85.029 14.7173 85.1196 14.68 85.2263 14.68H86.4743V12.008C86.4743 11.9013 86.5063 11.816 86.5703 11.752C86.645 11.6773 86.7356 11.64 86.8423 11.64H87.5943C87.701 11.64 87.7863 11.6773 87.8503 11.752C87.925 11.816 87.9623 11.9013 87.9623 12.008V14.68H89.9463C90.053 14.68 90.1383 14.7173 90.2023 14.792C90.277 14.856 90.3143 14.9413 90.3143 15.048V15.592C90.3143 15.6987 90.277 15.7893 90.2023 15.864C90.1383 15.928 90.053 15.96 89.9463 15.96H87.9623V20.072C87.9623 20.5733 88.0476 20.968 88.2183 21.256C88.389 21.544 88.693 21.688 89.1303 21.688H90.1063C90.213 21.688 90.2983 21.7253 90.3623 21.8C90.437 21.864 90.4743 21.9493 90.4743 22.056V22.632C90.4743 22.7387 90.437 22.8293 90.3623 22.904C90.2983 22.968 90.213 23 90.1063 23H89.0023Z" fill="black"/>
</svg>
