<svg width="40" height="40" viewBox="0 0 40 40" fill="none" xmlns="http://www.w3.org/2000/svg">
<path d="M34.1431 5.85654C33.2017 4.91531 32.2108 4.08294 31.1703 3.35943C27.9099 1.11984 24.1889 0 20.0074 0C14.4777 0 9.76109 1.95221 5.85663 5.85654C1.95223 9.76087 0 14.4781 0 20.0076C0 25.1011 1.6648 29.5058 4.99432 33.2221C5.27179 33.5391 5.55921 33.8464 5.85657 34.1435C9.76096 38.0478 14.4777 40 20.0073 40C25.527 40 30.2389 38.0478 34.1434 34.1435C38.0478 30.2391 40 25.5275 40 20.0076C40 14.4782 38.0478 9.76079 34.1434 5.85654H34.1431ZM19.9328 7.52128C21.4985 7.52128 22.8413 8.07621 23.9611 9.18602C25.0709 10.3058 25.6259 11.6487 25.6259 13.2145C25.6259 14.78 25.0709 16.1228 23.9611 17.2427C22.8413 18.3525 21.4985 18.9074 19.9328 18.9074C18.3573 18.9074 17.0145 18.3525 15.9047 17.2427C14.7849 16.1229 14.225 14.78 14.225 13.2145C14.225 11.6487 14.7849 10.3059 15.9047 9.18602C17.0146 8.07614 18.3573 7.52128 19.9328 7.52128ZM18.4165 22.1182H21.4044C23.9314 22.1182 26.0867 23.01 27.8704 24.7936C29.6345 26.5579 30.5314 28.6738 30.5609 31.1407C27.6291 33.9501 24.1108 35.3524 20.007 35.3474C15.8199 35.353 12.2375 33.8963 9.25999 30.9774C9.32967 28.5785 10.2215 26.5172 11.9356 24.7936C13.7293 23.0101 15.8895 22.1182 18.4163 22.1182H18.4165Z" fill="#E3E3E3"/>
</svg>
