<svg width="42" height="40" viewBox="0 0 42 40" fill="none" xmlns="http://www.w3.org/2000/svg">
<path d="M24.9179 35.8007C25.1138 30.5816 25.7262 27.5243 28.7318 23.011C29.2433 23.5129 29.9342 23.8289 30.6902 23.8289H39.1724C40.7144 23.8289 42 22.5307 42 20.9734V3.84108C42 2.28387 40.7145 0.985524 39.1724 0.985524H30.6902C29.8971 0.985524 29.1756 1.33209 28.6582 1.87783C28.2897 1.58272 27.9462 1.31184 27.5538 1.07482C26.7198 0.570907 25.7475 0.267829 24.5053 0.138071C22.0212 -0.121854 18.1083 0.0723423 9.01351 0.0338321C8.68875 0.0341641 8.36563 0.152008 8.11514 0.361147C6.31578 1.84365 5.43188 3.36839 5.02267 4.98636C4.86555 5.07266 4.72486 5.18951 4.61048 5.32827C3.246 7.05051 2.69575 9.03857 2.93179 10.8308C2.85619 10.8929 2.78683 10.9626 2.72569 11.039C1.14328 13.0364 0.641666 15.3995 1.20908 17.3894C0.281172 18.6056 -0.119881 20.0338 0.030998 21.3603C0.216058 22.987 1.24653 24.4526 2.79932 25.1377C2.97518 25.215 3.16682 25.2558 3.35878 25.2565H14.9629C14.342 29.9394 14.816 34.2323 16.4503 37.1386C17.3763 38.7855 18.7897 39.7508 20.2054 39.9643C22.7483 40.2796 24.6742 38.4754 24.9178 35.8002L24.9179 35.8007ZM18.9098 35.7263C17.6223 33.4365 17.0201 28.9325 17.9378 24.0966C18.093 23.2757 17.381 22.4039 16.5537 22.4013H3.77146C3.24323 22.1032 2.91356 21.6464 2.84389 21.0329C2.77848 20.458 3.02435 19.7648 3.59498 19.0697H8.54302C9.28984 19.0697 9.97683 18.3965 9.97683 17.6419C9.97683 16.8877 9.28983 16.2035 8.54302 16.2141H3.86031C3.75282 15.4062 3.95037 14.39 4.59661 13.3586H8.54302C9.28984 13.3586 9.97683 12.6854 9.97683 11.9308C9.97683 11.1766 9.28983 10.4924 8.54302 10.503H5.74507C5.63759 9.69505 5.83513 8.67891 6.48137 7.64749H8.54302C9.28984 7.64749 9.97683 6.97427 9.97683 6.21971C9.97683 5.4655 9.28983 4.78131 8.54302 4.79193H8.05719C8.34678 4.1622 8.80631 3.60449 9.61823 2.88852C18.198 2.91507 22.2885 2.77499 24.2265 2.97782C25.2251 3.08239 25.6189 3.23044 26.1112 3.52821C26.5211 3.77585 27.0872 4.24956 27.8635 4.88162V19.3514C23.4411 25.3221 22.3258 29.4982 22.0908 35.6662C21.649 38.1247 19.539 37.1049 18.9099 35.7256L18.9098 35.7263ZM39.1728 20.9735H30.6907C30.7225 15.3014 30.6907 9.55796 30.6907 3.84125H39.1728V20.9735Z" fill="#FF4E16"/>
</svg>
