<svg width="42" height="40" viewBox="0 0 42 40" fill="none" xmlns="http://www.w3.org/2000/svg">
<path d="M17.0821 4.19929C16.8862 9.41835 16.2738 12.4757 13.2682 16.989C12.7567 16.4871 12.0658 16.1711 11.3098 16.1711H2.82757C1.28562 16.1711 0 17.4693 0 19.0266V36.1589C0 37.7161 1.28554 39.0145 2.82757 39.0145H11.3098C12.1029 39.0145 12.8244 38.6679 13.3418 38.1222C13.7103 38.4173 14.0538 38.6882 14.4462 38.9252C15.2802 39.4291 16.2525 39.7322 17.4947 39.8619C19.9788 40.1219 23.8917 39.9277 32.9865 39.9662C33.3113 39.9658 33.6344 39.848 33.8849 39.6389C35.6842 38.1563 36.5681 36.6316 36.9773 35.0136C37.1345 34.9273 37.2751 34.8105 37.3895 34.6717C38.754 32.9495 39.3042 30.9614 39.0682 29.1692C39.1438 29.1071 39.2132 29.0374 39.2743 28.961C40.8567 26.9636 41.3583 24.6005 40.7909 22.6106C41.7188 21.3944 42.1199 19.9662 41.969 18.6397C41.7839 17.013 40.7535 15.5475 39.2007 14.8623C39.0248 14.785 38.8332 14.7442 38.6412 14.7435H27.0371C27.658 10.0606 27.184 5.76773 25.5497 2.86136C24.6237 1.2145 23.2103 0.249195 21.7945 0.0357215C19.2517 -0.279637 17.3258 1.5246 17.0822 4.19982L17.0821 4.19929ZM23.0902 4.27365C24.3777 6.56348 24.9799 11.0675 24.0622 15.9034C23.907 16.7243 24.619 17.5961 25.4463 17.5987H38.2285C38.7568 17.8968 39.0864 18.3536 39.1561 18.9671C39.2215 19.542 38.9757 20.2352 38.405 20.9303H33.457C32.7102 20.9303 32.0232 21.6035 32.0232 22.3581C32.0232 23.1123 32.7102 23.7965 33.457 23.7859H38.1397C38.2472 24.5938 38.0496 25.61 37.4034 26.6414H33.457C32.7102 26.6414 32.0232 27.3146 32.0232 28.0692C32.0232 28.8234 32.7102 29.5076 33.457 29.497H36.2549C36.3624 30.3049 36.1649 31.3211 35.5186 32.3525H33.457C32.7102 32.3525 32.0232 33.0257 32.0232 33.7803C32.0232 34.5345 32.7102 35.2187 33.457 35.2081H33.9428C33.6532 35.8378 33.1937 36.3955 32.3818 37.1115C23.802 37.0849 19.7115 37.225 17.7735 37.0222C16.7749 36.9176 16.3811 36.7696 15.8888 36.4718C15.4789 36.2241 14.9128 35.7504 14.1365 35.1184V20.6486C18.5589 14.6779 19.6742 10.5018 19.9092 4.33379C20.351 1.87527 22.461 2.89505 23.0901 4.27436L23.0902 4.27365ZM2.82715 19.0265H11.3093C11.2775 24.6986 11.3093 30.442 11.3093 36.1588H2.82715V19.0265Z" fill="#FF4E16"/>
</svg>
