<svg width="24" height="24" viewBox="0 0 24 24" fill="none" xmlns="http://www.w3.org/2000/svg">
<path fill-rule="evenodd" clip-rule="evenodd" d="M21.6 24H2.40004C1.08 24 0 22.92 0 21.6V2.40004C0 1.08 1.08 0 2.40004 0H21.6C22.92 0 24 1.08 24 2.40004V21.6C24 22.92 22.92 24 21.6 24ZM19.3801 6.99008C18.81 6.4801 17.91 6.4801 17.3701 6.99008L9.66012 14.19L6.63018 11.37C6.06013 10.86 5.16014 10.86 4.62019 11.37C4.05014 11.88 4.05014 12.7199 4.62019 13.26L8.64012 17.01C9.21017 17.52 10.1102 17.52 10.6501 17.01L19.3801 8.85007C19.9499 8.3401 19.9499 7.50013 19.3801 6.99013V6.99008Z" fill="#FF4E16"/>
</svg>
