<svg width="25" height="24" viewBox="0 0 25 24" fill="none" xmlns="http://www.w3.org/2000/svg">
<path d="M14.8321 21.4804C14.9487 18.349 15.3132 16.5146 17.1023 13.8066C17.4067 14.1077 17.818 14.2974 18.268 14.2974H23.3169C24.2347 14.2974 25 13.5184 25 12.584V2.30465C25 1.37032 24.2348 0.591314 23.3169 0.591314H18.268C17.7959 0.591314 17.3664 0.799253 17.0585 1.1267C16.8391 0.949629 16.6347 0.787102 16.401 0.644894C15.9047 0.342544 15.3259 0.160697 14.5865 0.0828423C13.1079 -0.0731125 10.7788 0.0434054 5.36518 0.0202992C5.17187 0.0204985 4.97954 0.0912045 4.83044 0.216688C3.7594 1.10619 3.23326 2.02103 2.98968 2.99181C2.89616 3.0436 2.81242 3.11371 2.74433 3.19696C1.93214 4.23031 1.60462 5.42314 1.74511 6.4985C1.70011 6.53574 1.65883 6.57757 1.62244 6.62338C0.680521 7.82183 0.381944 9.23973 0.719691 10.4336C0.167364 11.1634 -0.0713576 12.0203 0.0184512 12.8162C0.128606 13.7922 0.74198 14.6715 1.66626 15.0826C1.77094 15.129 1.88501 15.1535 1.99927 15.1539H8.90649C8.53689 17.9637 8.81903 20.5394 9.79185 22.2832C10.343 23.2713 11.1844 23.8505 12.0271 23.9786C13.5407 24.1678 14.687 23.0852 14.832 21.4801L14.8321 21.4804ZM11.2558 21.4358C10.4894 20.0619 10.131 17.3595 10.6773 14.458C10.7696 13.9654 10.3458 13.4424 9.85337 13.4408H2.24492C1.9305 13.2619 1.73426 12.9879 1.69279 12.6198C1.65386 12.2748 1.80021 11.8589 2.13987 11.4418H5.08513C5.52967 11.4418 5.93859 11.0379 5.93859 10.5852C5.93859 10.1326 5.52966 9.72211 5.08513 9.72849H2.2978C2.23382 9.24369 2.35141 8.63401 2.73608 8.01516H5.08513C5.52967 8.01516 5.93859 7.61123 5.93859 7.15849C5.93859 6.70596 5.52966 6.29545 5.08513 6.30182H3.41968C3.35571 5.81703 3.47329 5.20735 3.85796 4.58849H5.08513C5.52967 4.58849 5.93859 4.18456 5.93859 3.73183C5.93859 3.2793 5.52966 2.86879 5.08513 2.87516H4.79595C4.96832 2.49732 5.24185 2.16269 5.72514 1.73311C10.8322 1.74904 13.267 1.66499 14.4205 1.78669C15.0149 1.84943 15.2493 1.93826 15.5424 2.11692C15.7864 2.26551 16.1233 2.54973 16.5854 2.92897V11.6109C13.953 15.1932 13.2892 17.6989 13.1493 21.3997C12.8863 22.8748 11.6304 22.263 11.2559 21.4354L11.2558 21.4358ZM23.3172 12.5841H18.2682C18.2872 9.18081 18.2682 5.73478 18.2682 2.30475H23.3172V12.5841Z" fill="#E3E3E3"/>
</svg>
