<svg width="25" height="24" viewBox="0 0 25 24" fill="none" xmlns="http://www.w3.org/2000/svg">
<path d="M10.1679 2.51958C10.0513 5.65101 9.6868 7.48544 7.89771 10.1934C7.59327 9.89227 7.182 9.70265 6.732 9.70265H1.68308C0.765253 9.70265 0 10.4816 0 11.416V21.6954C0 22.6297 0.765203 23.4087 1.68308 23.4087H6.732C7.20413 23.4087 7.6336 23.2007 7.94154 22.8733C8.16087 23.0504 8.36533 23.2129 8.59895 23.3551C9.09534 23.6575 9.6741 23.8393 10.4135 23.9172C11.8921 24.0731 14.2212 23.9566 19.6348 23.9797C19.8281 23.9795 20.0205 23.9088 20.1696 23.7833C21.2406 22.8938 21.7667 21.979 22.0103 21.0082C22.1038 20.9564 22.1876 20.8863 22.2557 20.803C23.0679 19.7697 23.3954 18.5769 23.2549 17.5015C23.2999 17.4643 23.3412 17.4224 23.3776 17.3766C24.3195 16.1782 24.6181 14.7603 24.2803 13.5664C24.8326 12.8366 25.0714 11.9797 24.9815 11.1838C24.8714 10.2078 24.258 9.32847 23.3337 8.9174C23.2291 8.87099 23.115 8.84649 23.0007 8.84609H16.0935C16.4631 6.03635 16.181 3.46064 15.2081 1.71682C14.657 0.728701 13.8156 0.149517 12.9729 0.0214329C11.4593 -0.167782 10.313 0.91476 10.168 2.51989L10.1679 2.51958ZM13.7442 2.56419C14.5106 3.93809 14.869 6.6405 14.3227 9.54203C14.2304 10.0346 14.6542 10.5576 15.1466 10.5592H22.7551C23.0695 10.7381 23.2657 11.0121 23.3072 11.3802C23.3461 11.7252 23.1998 12.1411 22.8601 12.5582H19.9149C19.4703 12.5582 19.0614 12.9621 19.0614 13.4148C19.0614 13.8674 19.4703 14.2779 19.9149 14.2715H22.7022C22.7662 14.7563 22.6486 15.366 22.2639 15.9848H19.9149C19.4703 15.9848 19.0614 16.3888 19.0614 16.8415C19.0614 17.294 19.4703 17.7045 19.9149 17.6982H21.5803C21.6443 18.183 21.5267 18.7927 21.142 19.4115H19.9149C19.4703 19.4115 19.0614 19.8154 19.0614 20.2682C19.0614 20.7207 19.4703 21.1312 19.9149 21.1248H20.2041C20.0317 21.5027 19.7581 21.8373 19.2749 22.2669C14.1678 22.251 11.733 22.335 10.5795 22.2133C9.98508 22.1506 9.75067 22.0617 9.4576 21.8831C9.21361 21.7345 8.87667 21.4503 8.41456 21.071V12.3891C11.047 8.80675 11.7108 6.30105 11.8507 2.60027C12.1137 1.12516 13.3696 1.73703 13.7441 2.56462L13.7442 2.56419ZM1.68282 11.4159H6.73175C6.71277 14.8192 6.73175 18.2652 6.73175 21.6953H1.68282V11.4159Z" fill="#E3E3E3"/>
</svg>
