<svg width="456" height="306" viewBox="0 0 456 306" fill="none" xmlns="http://www.w3.org/2000/svg">
<g clip-path="url(#clip0_217_867)">
<path d="M442.554 296.351H12.7349V297.277H442.554V296.351Z" fill="#FF4E16"/>
<path d="M46.541 128.422L46.1807 129.274L442.06 296.737L442.42 295.884L46.541 128.422Z" fill="#FF4E16"/>
<path d="M442.554 128.345H12.7349V129.27H442.554V128.345Z" fill="#FF4E16"/>
<path d="M384.258 148.478C384.317 168.062 380.517 187.467 373.077 205.582C365.636 223.697 354.699 240.168 340.892 254.053C339.369 255.585 337.813 257.082 336.223 258.543C334.308 260.311 332.343 262.025 330.329 263.685C329.945 264.004 329.561 264.319 329.172 264.629C321.216 271.079 312.599 276.669 303.466 281.305C302.925 281.578 302.384 281.851 301.838 282.119C300.973 282.545 300.098 282.962 299.224 283.369C266.854 298.437 230.041 300.936 195.933 290.381C136.216 271.84 92.7764 215.324 92.7764 148.478C92.7764 66.5523 158.027 0.141113 238.517 0.141113C319.007 0.141113 384.258 66.5523 384.258 148.478Z" fill="white"/>
<path d="M270.966 117.36L271.082 117.355L270.625 116.353C270.113 114.933 269.486 113.557 268.752 112.238L255.365 82.8343C254.938 81.8958 254.246 81.1026 253.374 80.5519C252.503 80.0012 251.489 79.717 250.459 79.7341L233.505 80.0167C232.408 80.035 231.345 80.3933 230.461 81.0421C229.577 81.6909 228.916 82.5983 228.57 83.6389L217.912 115.661C217.561 116.558 217.256 117.472 217 118.4L216.638 119.487L216.723 119.484C215.735 123.707 215.736 128.101 216.725 132.324C217.714 136.546 219.665 140.484 222.424 143.828C225.184 147.173 228.679 149.835 232.636 151.606C236.594 153.378 240.906 154.212 245.239 154.042C249.571 153.872 253.805 152.704 257.612 150.628C261.419 148.553 264.695 145.626 267.185 142.075C269.675 138.525 271.312 134.448 271.967 130.16C272.623 125.873 272.281 121.493 270.966 117.36H270.966Z" fill="#FF4E16"/>
<path d="M239.37 87.2074L234.035 116.381L234.637 116.491L239.972 87.3176L239.37 87.2074Z" fill="#FF4E16"/>
<path d="M245.781 87.1001L245.183 87.2301L251.48 116.211L252.078 116.081L245.781 87.1001Z" fill="#FF4E16"/>
<path d="M231.657 65.6575L253.381 65.2954C253.544 65.2927 253.7 65.3546 253.817 65.4675C253.934 65.5804 254.001 65.7351 254.004 65.8974C254.006 66.0598 253.944 66.2165 253.832 66.3333C253.719 66.45 253.564 66.5171 253.402 66.5198L231.677 66.8818C231.597 66.8832 231.517 66.8686 231.442 66.8391C231.368 66.8096 231.299 66.7656 231.242 66.7097C231.184 66.6538 231.138 66.5871 231.106 66.5133C231.074 66.4396 231.057 66.3602 231.055 66.2798C231.054 66.1995 231.068 66.1196 231.098 66.0448C231.127 65.97 231.171 65.9018 231.227 65.844C231.283 65.7862 231.35 65.74 231.424 65.708C231.497 65.676 231.577 65.6588 231.657 65.6575Z" fill="#FF4E16"/>
<path d="M231.887 70.2462L253.611 69.8842C253.773 69.8815 253.93 69.9434 254.047 70.0563C254.163 70.1692 254.23 70.3238 254.233 70.4862C254.236 70.6485 254.174 70.8053 254.061 70.922C253.948 71.0387 253.794 71.1058 253.631 71.1085L231.907 71.4706C231.745 71.4733 231.588 71.4114 231.471 71.2985C231.355 71.1856 231.287 71.0309 231.285 70.8686C231.282 70.7062 231.344 70.5494 231.457 70.4327C231.57 70.316 231.724 70.2489 231.887 70.2462Z" fill="#FF4E16"/>
<path d="M232.116 74.8349L253.84 74.4729C254.002 74.4702 254.159 74.5321 254.276 74.645C254.392 74.7579 254.46 74.9125 254.462 75.0749C254.465 75.2372 254.403 75.394 254.29 75.5107C254.177 75.6274 254.023 75.6945 253.86 75.6972L232.136 76.0593C231.974 76.062 231.817 76.0001 231.7 75.8872C231.584 75.7743 231.516 75.6197 231.514 75.4573C231.511 75.2949 231.573 75.1382 231.686 75.0214C231.799 74.9047 231.953 74.8376 232.116 74.8349Z" fill="#FF4E16"/>
<path d="M242.447 61.11C238.137 61.1818 234.684 63.6425 234.733 66.6061L250.338 66.346C250.289 63.3824 246.756 61.0382 242.447 61.11Z" fill="#FF4E16"/>
<path d="M244.848 120.69C245.699 120.747 246.506 121.092 247.136 121.668C247.297 121.802 247.456 121.942 247.615 122.083C248.118 122.608 248.735 123.012 249.418 123.263C250.913 123.671 252.389 122.488 253.635 121.277L254.062 121.716C252.692 123.048 251.051 124.343 249.257 123.854C248.482 123.581 247.781 123.131 247.21 122.541C247.055 122.405 246.901 122.269 246.745 122.139C246.234 121.715 245.246 121.055 244.368 121.397C244.004 121.575 243.679 121.825 243.415 122.132C243.211 122.348 242.989 122.547 242.754 122.728C242.272 123.07 241.699 123.262 241.108 123.28C240.517 123.298 239.934 123.14 239.432 122.827C239.252 122.707 239.078 122.576 238.912 122.437C238.64 122.167 238.301 121.974 237.93 121.877C237.41 121.804 236.937 122.176 236.436 122.569C235.963 123.029 235.357 123.33 234.704 123.429C234.682 123.43 234.66 123.431 234.638 123.431C233.418 123.452 232.644 122.232 232.166 121.304L232.71 121.023C233.36 122.284 233.987 122.859 234.672 122.818C235.196 122.717 235.679 122.463 236.058 122.087C236.638 121.632 237.237 121.162 238.014 121.271C238.498 121.376 238.943 121.615 239.297 121.961C239.446 122.086 239.602 122.203 239.763 122.312C240.162 122.556 240.623 122.678 241.09 122.664C241.557 122.65 242.01 122.501 242.393 122.233C242.603 122.071 242.8 121.892 242.982 121.7C243.304 121.33 243.701 121.032 244.145 120.827C244.369 120.739 244.607 120.693 244.848 120.69Z" fill="#FF4E16"/>
<path d="M243.137 0H242.5V61.085H243.137V0Z" fill="#FF4E16"/>
<path d="M435.103 105.835C431.225 120.176 417.941 129.058 417.941 129.058C417.941 129.058 410.945 114.688 414.823 100.347C418.702 86.0062 431.985 77.1244 431.985 77.1244C431.985 77.1244 438.981 91.4941 435.103 105.835Z" fill="#FF4E16"/>
<path d="M399.823 105.835C403.701 120.176 416.984 129.058 416.984 129.058C416.984 129.058 423.98 114.688 420.102 100.347C416.224 86.0062 402.94 77.1244 402.94 77.1244C402.94 77.1244 395.944 91.4941 399.823 105.835Z" fill="#FF4E16"/>
<path d="M405.521 102.753C416.163 113.116 417.463 129.046 417.463 129.046C417.463 129.046 401.509 128.175 390.867 117.812C380.226 107.449 378.926 91.5187 378.926 91.5187C378.926 91.5187 394.88 92.3901 405.521 102.753Z" fill="#FF4E16"/>
<path d="M429.404 102.753C418.763 113.116 417.463 129.046 417.463 129.046C417.463 129.046 433.417 128.175 444.059 117.812C454.7 107.449 456 91.5187 456 91.5187C456 91.5187 440.046 92.3901 429.404 102.753Z" fill="#FF4E16"/>
<path d="M56.1776 273.379C52.2995 287.72 39.0159 296.602 39.0159 296.602C39.0159 296.602 32.02 282.232 35.8982 267.891C39.7764 253.55 53.06 244.668 53.06 244.668C53.06 244.668 60.0558 259.038 56.1776 273.379Z" fill="#FF4E16"/>
<path d="M20.8967 273.379C24.7749 287.72 38.0585 296.602 38.0585 296.602C38.0585 296.602 45.0544 282.232 41.1762 267.891C37.298 253.55 24.0144 244.668 24.0144 244.668C24.0144 244.668 17.0186 259.038 20.8967 273.379Z" fill="#FF4E16"/>
<path d="M26.5956 270.297C37.2374 280.66 38.5372 296.59 38.5372 296.59C38.5372 296.59 22.5833 295.718 11.9416 285.356C1.29981 274.993 0 259.063 0 259.063C0 259.063 15.9539 259.934 26.5956 270.297Z" fill="#FF4E16"/>
<path d="M50.4787 270.297C39.8369 280.66 38.5371 296.59 38.5371 296.59C38.5371 296.59 54.491 295.718 65.1328 285.356C75.7745 274.993 77.0743 259.063 77.0743 259.063C77.0743 259.063 61.1204 259.934 50.4787 270.297Z" fill="#FF4E16"/>
<path d="M310.146 140.896C315.061 140.896 319.045 136.91 319.045 131.993C319.045 127.077 315.061 123.091 310.146 123.091C305.231 123.091 301.247 127.077 301.247 131.993C301.247 136.91 305.231 140.896 310.146 140.896Z" fill="#2F2E41"/>
<path d="M300.611 128.178C300.612 125.983 301.423 123.864 302.89 122.231C304.356 120.597 306.375 119.564 308.557 119.329C307.314 119.193 306.057 119.32 304.866 119.703C303.676 120.086 302.58 120.715 301.649 121.55C300.719 122.385 299.974 123.407 299.464 124.549C298.955 125.691 298.691 126.928 298.691 128.178C298.691 129.429 298.955 130.665 299.464 131.807C299.974 132.949 300.719 133.971 301.649 134.806C302.58 135.641 303.676 136.27 304.866 136.653C306.057 137.036 307.314 137.164 308.557 137.028C306.375 136.793 304.356 135.759 302.89 134.125C301.423 132.492 300.612 130.374 300.611 128.178Z" fill="#2F2E41"/>
<path d="M301.247 131.993C301.247 131.993 299.865 138.352 308.502 140.896L301.247 131.993Z" fill="#FF4E16"/>
<path d="M313.827 192.461C330.327 192.461 343.703 179.081 343.703 162.575C343.703 146.07 330.327 132.689 313.827 132.689C297.327 132.689 283.951 146.07 283.951 162.575C283.951 179.081 297.327 192.461 313.827 192.461Z" fill="#2F2E41"/>
<path d="M330.329 263.685C329.945 264.004 329.561 264.319 329.172 264.629C321.215 271.079 312.599 276.669 303.466 281.305C302.925 281.578 302.384 281.851 301.838 282.119C300.972 282.545 300.098 282.962 299.223 283.369L283.909 278.264L284.085 274.594V274.58L284.751 260.584L284.978 255.798L330.329 263.685Z" fill="#A0616A"/>
<path d="M301.838 282.119C300.973 282.545 300.098 282.962 299.224 283.369C293.242 286.167 287.072 288.544 280.759 290.483C280.727 290.39 280.708 290.293 280.703 290.196L283.909 274.52L284.085 274.594L301.838 282.119Z" fill="#2F2E41"/>
<path d="M306.369 194.283C317.296 194.283 326.154 185.422 326.154 174.492C326.154 163.561 317.296 154.7 306.369 154.7C295.442 154.7 286.584 163.561 286.584 174.492C286.584 185.422 295.442 194.283 306.369 194.283Z" fill="#A0616A"/>
<path d="M322.411 175.562C322.411 175.562 325.619 191.609 331.501 195.353L298.883 233.866L286.584 222.098L295.675 206.051C295.675 206.051 305.834 200.167 302.626 192.143L322.411 175.562Z" fill="#A0616A"/>
<path d="M361.12 228.709C355.322 237.87 348.539 246.369 340.892 254.053C340.563 246.879 339.851 240.965 338.453 239.215C338.45 239.215 338.447 239.213 338.444 239.21L321.339 233.865C321.339 233.865 325.082 198.56 334.174 196.959C334.174 196.959 335.492 197.227 337.542 197.847C344.149 199.838 358.334 205.447 360.375 217.282C360.955 221.062 361.204 224.885 361.12 228.709Z" fill="#A0616A"/>
<path d="M295.675 206.051C295.675 206.051 279.633 205.516 269.474 218.354C259.314 231.191 234.717 240.82 234.717 240.82L173.225 264.89C173.225 264.89 161.996 245.099 155.044 252.052C148.093 259.006 167.878 276.658 176.968 274.518C186.058 272.379 241.134 255.797 241.134 255.797L284.981 236.005L295.675 206.051Z" fill="#A0616A"/>
<path d="M338.453 239.215L336.223 258.543C334.308 260.311 332.343 262.025 330.329 263.685C329.945 264.004 329.561 264.319 329.172 264.629C313.733 259.894 289.54 260.422 284.751 260.584C284.206 260.598 283.909 260.612 283.909 260.612L283.377 249.379C278.246 247.671 276.562 243.936 276.516 239.826C276.437 232.374 281.772 223.701 281.772 223.701C282.73 222.743 289.887 209.168 291.368 206.354C291.539 206.026 291.636 205.845 291.636 205.845L298.053 204.244C298.053 204.244 298.035 204.295 297.998 204.387C297.424 205.993 292.436 220.521 301.024 221.026C309.472 221.526 327.849 197.792 330.38 194.464C330.57 194.214 330.671 194.08 330.671 194.08L337.625 197.824C337.598 197.834 337.57 197.838 337.542 197.847C333.295 199.028 329.362 209.261 329.362 209.261C318.272 228.811 337.958 238.965 338.444 239.21C338.447 239.213 338.45 239.215 338.453 239.215Z" fill="#D0CDE1"/>
<path d="M307.444 151.261C296.912 151.261 288.375 156.243 288.375 162.388C288.375 165.138 290.091 167.651 292.923 169.593L296.595 166.932L295.596 171.101C296.01 171.293 296.433 171.479 296.875 171.65L302.359 165.25V173.113C304.041 173.382 305.741 173.517 307.444 173.516C317.976 173.516 326.514 168.534 326.514 162.388C326.514 156.243 317.976 151.261 307.444 151.261Z" fill="#2F2E41"/>
<path d="M346.507 154.803C351.422 154.803 355.406 150.817 355.406 145.901C355.406 140.984 351.422 136.999 346.507 136.999C341.592 136.999 337.608 140.984 337.608 145.901C337.608 150.817 341.592 154.803 346.507 154.803Z" fill="#2F2E41"/>
<path d="M336.972 142.086C336.972 139.89 337.784 137.772 339.25 136.138C340.717 134.505 342.735 133.471 344.918 133.236C344.601 133.202 344.283 133.184 343.964 133.183C342.754 133.182 341.557 133.427 340.445 133.904C339.333 134.381 338.329 135.079 337.497 135.957C336.664 136.835 336.018 137.874 335.6 139.01C335.182 140.145 335 141.355 335.065 142.563C335.13 143.772 335.441 144.955 335.978 146.039C336.515 147.123 337.268 148.087 338.19 148.87C339.112 149.654 340.185 150.241 341.341 150.596C342.498 150.951 343.715 151.067 344.918 150.935C342.735 150.7 340.717 149.666 339.25 148.033C337.784 146.399 336.972 144.281 336.972 142.086Z" fill="#2F2E41"/>
<path d="M337.608 145.901C337.608 145.901 336.226 152.26 344.862 154.803L337.608 145.901Z" fill="#FF4E16"/>
<path d="M326.956 176.364C327.809 176.364 328.501 174.807 328.501 172.887C328.501 170.967 327.809 169.41 326.956 169.41C326.103 169.41 325.411 170.967 325.411 172.887C325.411 174.807 326.103 176.364 326.956 176.364Z" fill="#A0616A"/>
<path d="M156.466 186.338L133.019 192.02L132.943 192.039L130.394 194.347L129.66 195.01L128.088 194.725L125.304 194.222L127.244 187.672L127.608 175.179L126.274 167.537L133.67 162.443C133.67 162.443 148.099 161.593 156.466 186.338Z" fill="#D0CDE1"/>
<path opacity="0.1" d="M133.019 192.02C132.701 192.698 133.367 192.251 133.003 192.948L129.608 194.04L128.088 194.725L125.304 194.222L127.244 187.672L127.608 175.179L126.274 167.537L133.67 162.443C133.67 162.443 141.609 173.689 133.019 192.02Z" fill="black"/>
<path d="M184.112 168.386C184.112 168.386 153.313 182.699 140.824 184.882C128.335 187.065 129.426 199.559 129.426 199.559L199.39 188.642C199.39 188.642 196.965 177.362 184.112 168.386Z" fill="#D0CDE1"/>
<path d="M124.698 165.96C124.698 165.96 130.033 178.939 124.091 195.071L131.003 198.225L133.67 195.071L133.731 194.768L126.395 194.101C126.395 194.101 132.458 177.847 127.486 166.567C127.486 166.567 126.395 164.141 124.698 165.96Z" fill="#FF4E16"/>
<path d="M226.429 262.147C199.147 256.082 173.745 268.636 173.745 268.636L173.675 268.574L163.559 259.539L124.031 195.01L133.67 195.071C160.467 179.06 198.177 181.243 198.177 181.243C214.425 199.68 226.429 262.147 226.429 262.147Z" fill="#FF4E16"/>
<path opacity="0.1" d="M173.675 268.574L163.559 259.539L124.031 195.01L133.67 195.071C133.67 195.071 172.091 245.832 173.675 268.574Z" fill="black"/>
<path d="M178.115 218.226C186.374 215.691 191.764 209.38 190.154 204.128C188.544 198.877 180.543 196.674 172.284 199.208C164.025 201.742 158.635 208.053 160.246 213.305C161.856 218.557 169.856 220.76 178.115 218.226Z" fill="#D0CDE1"/>
<path d="M12.8591 137.068C17.714 137.068 21.6498 133.131 21.6498 128.274C21.6498 123.417 17.714 119.48 12.8591 119.48C8.00409 119.48 4.06836 123.417 4.06836 128.274C4.06836 133.131 8.00409 137.068 12.8591 137.068Z" fill="#FF4E16"/>
<path d="M442.215 306C447.07 306 451.006 302.063 451.006 297.206C451.006 292.35 447.07 288.413 442.215 288.413C437.361 288.413 433.425 292.35 433.425 297.206C433.425 302.063 437.361 306 442.215 306Z" fill="#FF4E16"/>
<path d="M51.2608 136.142C55.0937 136.142 58.2009 133.034 58.2009 129.2C58.2009 125.365 55.0937 122.257 51.2608 122.257C47.428 122.257 44.3208 125.365 44.3208 129.2C44.3208 133.034 47.428 136.142 51.2608 136.142Z" fill="#FF4E16"/>
<path d="M442.215 136.142C446.048 136.142 449.155 133.034 449.155 129.2C449.155 125.365 446.048 122.257 442.215 122.257C438.383 122.257 435.275 125.365 435.275 129.2C435.275 133.034 438.383 136.142 442.215 136.142Z" fill="#FF4E16"/>
<path d="M12.859 303.223C16.6918 303.223 19.799 300.115 19.799 296.281C19.799 292.446 16.6918 289.338 12.859 289.338C9.0261 289.338 5.91895 292.446 5.91895 296.281C5.91895 300.115 9.0261 303.223 12.859 303.223Z" fill="#FF4E16"/>
</g>
<defs>
<clipPath id="clip0_217_867">
<rect width="456" height="306" fill="white"/>
</clipPath>
</defs>
</svg>
