<svg width="648" height="570" viewBox="0 0 648 570" fill="none" xmlns="http://www.w3.org/2000/svg">
<path d="M38.2366 80.8822C35.5256 80.8822 32.8756 80.0784 30.6215 78.5722C28.3675 77.0661 26.6106 74.9254 25.5732 72.4209C24.5357 69.9163 24.2643 67.1603 24.7932 64.5015C25.3221 61.8426 26.6275 59.4003 28.5444 57.4834C30.4614 55.5665 32.9037 54.261 35.5625 53.7322C38.2213 53.2033 40.9773 53.4747 43.4819 54.5121C45.9865 55.5496 48.1272 57.3064 49.6333 59.5605C51.1394 61.8145 51.9433 64.4646 51.9433 67.1755C51.9391 70.8095 50.4937 74.2934 47.9241 76.863C45.3545 79.4326 41.8705 80.8781 38.2366 80.8822V80.8822ZM38.2366 55.7532C35.9775 55.7532 33.7691 56.4232 31.8907 57.6783C30.0123 58.9333 28.5483 60.7172 27.6838 62.8044C26.8192 64.8915 26.593 67.1882 27.0338 69.4039C27.4745 71.6196 28.5624 73.6549 30.1598 75.2523C31.7573 76.8497 33.7925 77.9376 36.0082 78.3783C38.2239 78.819 40.5205 78.5928 42.6077 77.7283C44.6948 76.8638 46.4787 75.3998 47.7338 73.5214C48.9889 71.643 49.6588 69.4346 49.6588 67.1755C49.6555 64.1472 48.451 61.2438 46.3096 59.1025C44.1682 56.9611 41.2649 55.7566 38.2366 55.7532V55.7532Z" fill="#E3E3E3"/>
<path d="M625.549 97.5489H603V75H625.549V97.5489ZM604.735 95.8143H623.814V76.7346H604.734L604.735 95.8143Z" fill="#E3E3E3"/>
<path d="M110.735 415.977L95.3553 399.488L111.845 384.108L127.225 400.597L110.735 415.977ZM97.8068 399.573L110.821 413.526L124.773 400.512L111.759 386.559L97.8068 399.573Z" fill="#E3E3E3"/>
<path d="M625.898 569.4C601.199 565.534 577.451 562.245 554.655 559.534L563.433 541.977C560.386 540.961 547.182 551.118 547.182 551.118L558.355 500.334C543.12 502.365 536.01 554.165 536.01 554.165L518.743 536.898L527.243 556.447C457.485 549.117 397.29 546.83 346.689 547.355L354.203 532.328C351.156 531.312 337.952 541.469 337.952 541.469L349.124 490.685C333.889 492.716 326.779 544.516 326.779 544.516L309.513 527.249L318.515 547.955C283.854 548.962 249.268 551.747 214.892 556.3C222.39 532.943 248.572 510.491 248.572 510.491C228.44 516.754 217.967 526.957 212.546 536.416C211.45 488.431 218.831 440.629 234.352 395.211C234.352 395.211 193.725 486.622 199.819 547.563L200.592 558.388C165.247 563.902 147.511 569.4 147.511 569.4H625.898Z" fill="#E3E3E3"/>
<path opacity="0.3" d="M375.425 446.628C463.111 446.628 534.195 375.545 534.195 287.859C534.195 200.173 463.111 129.089 375.425 129.089C287.739 129.089 216.655 200.173 216.655 287.859C216.655 375.545 287.739 446.628 375.425 446.628Z" fill="#FF4E16"/>
<path d="M310.223 85.873L204.51 214.137L360.965 398.782L465.268 276.156L310.223 85.873Z" fill="#FF4E16"/>
<path opacity="0.1" d="M310.223 85.873L204.51 214.137L360.965 398.782L465.268 276.156L310.223 85.873Z" fill="black"/>
<path d="M208.739 215.547C211.077 211.338 213.977 207.466 217.358 204.039L314.451 105.606C314.451 105.606 348.279 99.9678 355.327 116.882L231.291 218.366L208.739 215.547Z" fill="#F2F2F2"/>
<path d="M203.805 213.433L347.575 433.315C347.575 433.315 361.67 443.182 375.765 437.544L523.058 338.174L366.603 101.377L225.653 211.318L203.805 213.433Z" fill="#FF4E16"/>
<path d="M349.026 135.692L258.811 200.519L260.144 202.374L350.359 137.547L349.026 135.692Z" fill="#E3E3E3"/>
<path d="M257.615 224.783L255.709 226.044L374.108 405.051L376.013 403.791L257.615 224.783Z" fill="#E3E3E3"/>
<path d="M484.313 338.649L388.489 409.152L389.843 410.993L485.667 340.489L484.313 338.649Z" fill="#E3E3E3"/>
<path d="M366.131 138.782L364.257 140.086L486.883 316.274L488.758 314.969L366.131 138.782Z" fill="#E3E3E3"/>
<path d="M328.253 104.209L216.719 206.571L217.672 207.609L329.206 105.246L328.253 104.209Z" fill="#E3E3E3"/>
<path d="M337.544 105.086L220.977 207.993L221.91 209.05L338.477 106.143L337.544 105.086Z" fill="#E3E3E3"/>
<path d="M344.836 107.137L223.829 208.002L224.731 209.085L345.739 108.22L344.836 107.137Z" fill="#E3E3E3"/>
<path d="M547.707 466.413C544.996 466.413 542.346 465.61 540.092 464.103C537.838 462.597 536.081 460.457 535.043 457.952C534.006 455.448 533.735 452.692 534.263 450.033C534.792 447.374 536.098 444.932 538.015 443.015C539.932 441.098 542.374 439.792 545.033 439.263C547.692 438.735 550.448 439.006 552.952 440.043C555.457 441.081 557.597 442.838 559.103 445.092C560.61 447.346 561.413 449.996 561.413 452.707C561.409 456.341 559.964 459.825 557.394 462.394C554.825 464.964 551.341 466.409 547.707 466.413V466.413ZM547.707 441.284C545.448 441.284 543.239 441.954 541.361 443.209C539.482 444.465 538.018 446.248 537.154 448.336C536.289 450.423 536.063 452.719 536.504 454.935C536.945 457.151 538.033 459.186 539.63 460.784C541.227 462.381 543.263 463.469 545.478 463.91C547.694 464.35 549.991 464.124 552.078 463.26C554.165 462.395 555.949 460.931 557.204 459.053C558.459 457.174 559.129 454.966 559.129 452.707C559.126 449.678 557.921 446.775 555.78 444.634C553.638 442.492 550.735 441.288 547.707 441.284V441.284Z" fill="#E3E3E3"/>
</svg>
