<svg width="360" height="293" viewBox="0 0 360 293" fill="none" xmlns="http://www.w3.org/2000/svg">
<g clip-path="url(#clip0_0_1)">
<path d="M132.634 222.627C131.531 219.983 131.409 217.031 132.292 214.305C133.175 211.579 135.004 209.258 137.448 207.762C138.262 207.267 137.518 205.985 136.7 206.482C133.897 208.157 131.804 210.801 130.819 213.914C129.833 217.027 130.024 220.393 131.354 223.376C131.728 224.25 133.005 223.496 132.634 222.627H132.634Z" fill="#E3E3E3"/>
<path d="M133.058 224.621C131.059 221.079 131.529 216.841 132.248 213.01C132.999 209.012 133.983 204.952 133.132 200.886C132.746 198.911 131.832 197.079 130.487 195.582C129.839 194.879 128.793 195.929 129.439 196.63C131.953 199.361 132.245 203.323 131.837 206.841C131.356 210.991 129.992 215.035 130.162 219.251C130.206 221.39 130.76 223.488 131.778 225.369C131.881 225.532 132.043 225.648 132.23 225.694C132.416 225.739 132.614 225.711 132.78 225.614C132.946 225.517 133.068 225.359 133.12 225.174C133.172 224.989 133.15 224.79 133.058 224.621L133.058 224.621Z" fill="#E3E3E3"/>
<path d="M143.788 235.932H118.588C117.999 235.931 117.434 235.697 117.017 235.28C116.6 234.863 116.365 234.298 116.365 233.708V226.306C116.367 224.404 117.123 222.581 118.468 221.236C119.813 219.891 121.637 219.134 123.539 219.132H127.235C127.432 219.132 127.62 219.054 127.759 218.915C127.898 218.776 127.976 218.588 127.976 218.391V214.933C127.977 214.605 128.107 214.291 128.339 214.059C128.57 213.828 128.884 213.698 129.212 213.697H133.165C133.492 213.698 133.806 213.828 134.038 214.059C134.269 214.291 134.4 214.605 134.4 214.933V218.391C134.4 218.588 134.478 218.776 134.617 218.915C134.756 219.054 134.945 219.132 135.141 219.132H138.837C140.739 219.134 142.563 219.891 143.908 221.236C145.253 222.581 146.01 224.404 146.012 226.306V233.708C146.011 234.298 145.777 234.863 145.36 235.28C144.943 235.697 144.378 235.931 143.788 235.932Z" fill="#CCCCCC"/>
<path d="M131.576 191.482C132.106 194.298 131.449 196.786 130.108 197.038C128.768 197.291 127.25 195.213 126.72 192.397C126.189 189.582 127.821 184.899 127.821 184.899C127.821 184.899 131.045 188.667 131.576 191.482Z" fill="#FF4E16"/>
<path d="M141.751 204.582C140.071 206.903 137.813 208.136 136.708 207.336C135.602 206.536 136.068 204.006 137.749 201.685C139.429 199.364 143.951 197.33 143.951 197.33C143.951 197.33 143.431 202.261 141.751 204.582Z" fill="#FF4E16"/>
<path d="M86.1871 44.7523C85.0836 42.1077 84.9623 39.1557 85.8452 36.4295C86.7281 33.7034 88.557 31.3829 91.0014 29.8873C91.8154 29.3924 91.0713 28.11 90.2532 28.6074C87.4495 30.2814 85.3569 32.9254 84.3717 36.0386C83.3864 39.1518 83.5769 42.5182 84.9071 45.5004C85.2811 46.3749 86.5584 45.6206 86.1871 44.7523H86.1871Z" fill="#E3E3E3"/>
<path d="M86.6111 46.7459C84.6117 43.204 85.0822 38.9653 85.8014 35.1351C86.5521 31.1368 87.5362 27.0771 86.6847 23.0105C86.2986 21.0361 85.3845 19.2033 84.0397 17.707C83.3921 17.0037 82.3459 18.054 82.9915 18.7551C85.506 21.486 85.7975 25.4476 85.3897 28.9659C84.9087 33.1156 83.5454 37.1593 83.7146 41.3761C83.7588 43.515 84.313 45.6125 85.3311 47.4941C85.4338 47.6567 85.5956 47.7731 85.7825 47.8187C85.9693 47.8642 86.1666 47.8355 86.3326 47.7384C86.4987 47.6414 86.6205 47.4836 86.6725 47.2985C86.7244 47.1133 86.7024 46.9152 86.6111 46.7459L86.6111 46.7459Z" fill="#E3E3E3"/>
<path d="M97.3412 58.0565H72.1412C71.5517 58.0559 70.9865 57.8214 70.5696 57.4046C70.1528 56.9878 69.9183 56.4226 69.9177 55.8331V48.4313C69.9198 46.5293 70.6764 44.7058 72.0214 43.3608C73.3664 42.0159 75.19 41.2594 77.0921 41.2572H80.7883C80.9848 41.257 81.1732 41.1789 81.3121 41.0399C81.4511 40.901 81.5292 40.7126 81.5294 40.5161V37.0574C81.5298 36.7299 81.6601 36.4159 81.8916 36.1843C82.1232 35.9528 82.4372 35.8225 82.7647 35.8221H86.7177C87.0452 35.8225 87.3592 35.9528 87.5907 36.1843C87.8223 36.4159 87.9526 36.7299 87.953 37.0574V40.5161C87.9532 40.7126 88.0313 40.901 88.1703 41.0399C88.3092 41.1789 88.4976 41.257 88.6941 41.2572H92.3903C94.2924 41.2594 96.116 42.0159 97.461 43.3608C98.806 44.7058 99.5625 46.5293 99.5647 48.4313V55.8331C99.5641 56.4226 99.3296 56.9878 98.9127 57.4046C98.4959 57.8214 97.9307 58.0559 97.3412 58.0565Z" fill="#CCCCCC"/>
<path d="M85.1285 13.6073C85.6591 16.423 85.0022 18.9104 83.6613 19.163C82.3204 19.4157 80.8033 17.3379 80.2728 14.5221C79.7422 11.7064 81.374 7.02417 81.374 7.02417C81.374 7.02417 84.5979 10.7915 85.1285 13.6073Z" fill="#FF4E16"/>
<path d="M95.3041 26.7069C93.6239 29.0279 91.3659 30.2608 90.2606 29.4608C89.1553 28.6607 89.6214 26.1306 91.3016 23.8096C92.9818 21.4887 97.5041 19.4548 97.5041 19.4548C97.5041 19.4548 96.9843 24.3859 95.3041 26.7069Z" fill="#FF4E16"/>
<path d="M36.0706 134.395H15.8118V141.806H36.0706V134.395Z" fill="#FF4E16"/>
<path d="M36.0706 158.605H15.8118V166.017H36.0706V158.605Z" fill="#FF4E16"/>
<path d="M159.6 293H8.4C6.17295 292.997 4.03783 292.112 2.46306 290.537C0.888299 288.962 0.00249665 286.827 0 284.6V8.39966C0.00249665 6.1727 0.888299 4.03767 2.46306 2.46296C4.03783 0.888263 6.17295 0.00249655 8.4 0H159.6C161.827 0.00250699 163.962 0.888273 165.537 2.46297C167.112 4.03767 167.997 6.1727 168 8.39966V284.6C167.997 286.827 167.112 288.962 165.537 290.537C163.962 292.112 161.827 292.997 159.6 293ZM8.4 0.988196C6.43496 0.990419 4.55104 1.77198 3.16155 3.16142C1.77206 4.55085 0.990459 6.4347 0.988235 8.39966V284.6C0.990459 286.565 1.77206 288.449 3.16155 289.839C4.55104 291.228 6.43496 292.01 8.4 292.012H159.6C161.565 292.01 163.449 291.228 164.838 289.839C166.228 288.449 167.01 286.565 167.012 284.6V8.39966C167.01 6.4347 166.228 4.55085 164.838 3.16142C163.449 1.77198 161.565 0.990419 159.6 0.988196H8.4Z" fill="#E3E3E3"/>
<path d="M167.506 57.0449H0.49411V58.0331H167.506V57.0449Z" fill="#E3E3E3"/>
<path d="M167.506 116.352H0.49411V117.34H167.506V116.352Z" fill="#E3E3E3"/>
<path d="M167.506 175.659H0.49411V176.648H167.506V175.659Z" fill="#E3E3E3"/>
<path d="M167.506 234.967H0.49411V235.955H167.506V234.967Z" fill="#E3E3E3"/>
<path d="M34.5882 176.887H17.7882C17.1332 176.886 16.5053 176.626 16.0421 176.163C15.5789 175.699 15.3184 175.072 15.3176 174.417V126.489C15.3184 125.834 15.5789 125.206 16.0421 124.743C16.5053 124.28 17.1332 124.019 17.7882 124.019H34.5882C35.2432 124.019 35.8712 124.28 36.3344 124.743C36.7975 125.206 37.0581 125.834 37.0588 126.489V174.417C37.0581 175.072 36.7975 175.699 36.3344 176.163C35.8712 176.626 35.2432 176.886 34.5882 176.887ZM17.7882 125.007C17.3952 125.007 17.0184 125.164 16.7405 125.441C16.4626 125.719 16.3063 126.096 16.3059 126.489V174.417C16.3063 174.81 16.4626 175.186 16.7405 175.464C17.0184 175.742 17.3952 175.898 17.7882 175.899H34.5882C34.9812 175.898 35.358 175.742 35.6359 175.464C35.9138 175.186 36.0701 174.81 36.0706 174.417V126.489C36.0701 126.096 35.9138 125.719 35.6359 125.441C35.358 125.164 34.9812 125.007 34.5882 125.007H17.7882Z" fill="#E3E3E3"/>
<path d="M67.2 134.395H46.9412V141.806H67.2V134.395Z" fill="#FF4E16"/>
<path d="M67.2 158.605H46.9412V166.017H67.2V158.605Z" fill="#FF4E16"/>
<path d="M65.7176 176.887H48.9176C48.2626 176.886 47.6347 176.626 47.1715 176.163C46.7083 175.699 46.4478 175.072 46.4471 174.417V126.489C46.4478 125.834 46.7083 125.206 47.1715 124.743C47.6347 124.28 48.2626 124.019 48.9176 124.019H65.7176C66.3726 124.019 67.0006 124.28 67.4638 124.743C67.9269 125.206 68.1875 125.834 68.1882 126.489V174.417C68.1875 175.072 67.9269 175.699 67.4638 176.163C67.0006 176.626 66.3726 176.886 65.7176 176.887ZM48.9176 125.007C48.5246 125.007 48.1478 125.164 47.8699 125.441C47.592 125.719 47.4357 126.096 47.4353 126.489V174.417C47.4357 174.81 47.592 175.186 47.8699 175.464C48.1478 175.742 48.5246 175.898 48.9176 175.899H65.7176C66.1106 175.898 66.4874 175.742 66.7653 175.464C67.0432 175.186 67.1996 174.81 67.2 174.417V126.489C67.1996 126.096 67.0432 125.719 66.7653 125.441C66.4874 125.164 66.1106 125.007 65.7176 125.007H48.9176Z" fill="#E3E3E3"/>
<path d="M116.612 74.6088H96.3529V82.0202H116.612V74.6088Z" fill="#FF4E16"/>
<path d="M116.612 98.8196H96.3529V106.231H116.612V98.8196Z" fill="#FF4E16"/>
<path d="M115.129 117.101H98.3294C97.6744 117.1 97.0464 116.84 96.5833 116.377C96.1201 115.914 95.8596 115.286 95.8588 114.631V66.7032C95.8596 66.0482 96.1201 65.4202 96.5833 64.9571C97.0464 64.4939 97.6744 64.2334 98.3294 64.2327H115.129C115.784 64.2334 116.412 64.4939 116.876 64.9571C117.339 65.4202 117.599 66.0482 117.6 66.7032V114.631C117.599 115.286 117.339 115.914 116.876 116.377C116.412 116.84 115.784 117.1 115.129 117.101ZM98.3294 65.2209C97.9364 65.2213 97.5596 65.3776 97.2817 65.6555C97.0038 65.9334 96.8475 66.3102 96.8471 66.7032V114.631C96.8475 115.024 97.0038 115.4 97.2817 115.678C97.5596 115.956 97.9364 116.112 98.3294 116.113H115.129C115.522 116.112 115.899 115.956 116.177 115.678C116.455 115.4 116.611 115.024 116.612 114.631V66.7032C116.611 66.3102 116.455 65.9334 116.177 65.6555C115.899 65.3776 115.522 65.2213 115.129 65.2209H98.3294Z" fill="#E3E3E3"/>
<path d="M147.741 74.6088H127.482V82.0202H147.741V74.6088Z" fill="#FF4E16"/>
<path d="M147.741 98.8196H127.482V106.231H147.741V98.8196Z" fill="#FF4E16"/>
<path d="M146.259 117.101H129.459C128.804 117.1 128.176 116.84 127.713 116.377C127.25 115.914 126.989 115.286 126.988 114.631V66.7032C126.989 66.0482 127.25 65.4202 127.713 64.9571C128.176 64.4939 128.804 64.2334 129.459 64.2327H146.259C146.914 64.2334 147.542 64.4939 148.005 64.9571C148.468 65.4202 148.729 66.0482 148.729 66.7032V114.631C148.729 115.286 148.468 115.914 148.005 116.377C147.542 116.84 146.914 117.1 146.259 117.101ZM129.459 65.2209C129.066 65.2213 128.689 65.3776 128.411 65.6555C128.133 65.9334 127.977 66.3102 127.976 66.7032V114.631C127.977 115.024 128.133 115.4 128.411 115.678C128.689 115.956 129.066 116.112 129.459 116.113H146.259C146.652 116.112 147.029 115.956 147.307 115.678C147.584 115.4 147.741 115.024 147.741 114.631V66.7032C147.741 66.3102 147.584 65.9334 147.307 65.6555C147.029 65.3776 146.652 65.2213 146.259 65.2209H129.459Z" fill="#E3E3E3"/>
<path d="M92.0491 129.968L73.085 137.094L75.6921 144.032L94.6562 136.906L92.0491 129.968Z" fill="#FF4E16"/>
<path d="M100.566 152.632L81.6016 159.758L84.2087 166.696L103.173 159.57L100.566 152.632Z" fill="#FF4E16"/>
<path d="M89.0123 176.335C88.5098 176.334 88.0196 176.18 87.6067 175.894C87.1938 175.608 86.8779 175.202 86.7009 174.732L69.8415 129.868C69.6118 129.254 69.6348 128.575 69.9055 127.978C70.1761 127.382 70.6722 126.917 71.285 126.686L87.0115 120.777C87.3152 120.663 87.6384 120.61 87.9627 120.62C88.287 120.631 88.606 120.706 88.9014 120.84C89.1969 120.974 89.4631 121.165 89.6847 121.402C89.9063 121.639 90.0791 121.917 90.1932 122.221L107.053 167.085C107.282 167.699 107.259 168.378 106.989 168.974C106.718 169.571 106.222 170.036 105.609 170.267H105.609L89.8826 176.176C89.6044 176.281 89.3096 176.335 89.0123 176.335ZM87.8814 121.606C87.703 121.607 87.526 121.639 87.3591 121.702L71.6327 127.611C71.265 127.75 70.9673 128.029 70.8049 128.387C70.6426 128.745 70.6287 129.152 70.7665 129.52L87.6259 174.385C87.6944 174.567 87.7981 174.734 87.9311 174.876C88.0641 175.018 88.2238 175.133 88.401 175.213C88.5783 175.294 88.7697 175.338 88.9643 175.345C89.1588 175.351 89.3528 175.319 89.535 175.251L105.261 169.342C105.629 169.203 105.927 168.924 106.089 168.566C106.252 168.208 106.265 167.801 106.128 167.433L89.2681 122.568C89.1619 122.286 88.9723 122.043 88.7246 121.871C88.4769 121.699 88.1828 121.607 87.8814 121.606Z" fill="#E3E3E3"/>
<path d="M23.8608 71.1708L4.89671 78.2966L7.50384 85.2344L26.468 78.1086L23.8608 71.1708Z" fill="#FF4E16"/>
<path d="M32.3774 93.8344L13.4133 100.96L16.0204 107.898L34.9846 100.772L32.3774 93.8344Z" fill="#FF4E16"/>
<path d="M20.8241 117.537C20.3216 117.536 19.8314 117.383 19.4185 117.096C19.0056 116.81 18.6897 116.405 18.5126 115.935L1.65323 71.07C1.42361 70.4567 1.44663 69.7773 1.71725 69.1809C1.98787 68.5844 2.48399 68.1197 3.0968 67.8885L18.8233 61.9794C19.127 61.8652 19.4502 61.812 19.7745 61.8228C20.0988 61.8335 20.4178 61.9081 20.7132 62.0422C21.0087 62.1762 21.2748 62.3672 21.4965 62.6041C21.7181 62.8411 21.8909 63.1194 22.005 63.4231L38.8644 108.288C39.0941 108.901 39.071 109.58 38.8004 110.177C38.5298 110.773 38.0337 111.238 37.4209 111.469H37.4208L21.6944 117.378C21.4162 117.483 21.1214 117.537 20.8241 117.537ZM19.6932 62.8089C19.5148 62.8091 19.3378 62.8414 19.1709 62.9044L3.44453 68.8135C3.0768 68.9522 2.7791 69.2311 2.61671 69.589C2.45433 69.9469 2.44052 70.3546 2.57832 70.7226L19.4377 115.587C19.5062 115.769 19.6099 115.936 19.7429 116.078C19.8759 116.221 20.0356 116.335 20.2128 116.416C20.3901 116.496 20.5815 116.541 20.7761 116.547C20.9706 116.554 21.1645 116.522 21.3468 116.453L37.0731 110.544C37.4409 110.405 37.7386 110.126 37.901 109.769C38.0633 109.411 38.0771 109.003 37.9393 108.635L21.0799 63.7705C20.9737 63.4884 20.7841 63.2454 20.5364 63.0736C20.2887 62.9018 19.9946 62.8095 19.6932 62.8089Z" fill="#E3E3E3"/>
</g>
<path d="M291.29 80.035C301.92 80.035 310.537 71.4426 310.537 60.8434C310.537 50.2441 301.92 41.6517 291.29 41.6517C280.66 41.6517 272.042 50.2441 272.042 60.8434C272.042 71.4426 280.66 80.035 291.29 80.035Z" fill="#C7B86D"/>
<path d="M205.782 148.426C206.691 148.777 207.667 148.925 208.64 148.86C209.612 148.795 210.559 148.517 211.413 148.048C212.267 147.578 213.007 146.928 213.581 146.142C214.156 145.356 214.55 144.455 214.738 143.5L267.66 110.207L258.027 99.3934L209.013 135.542C207.384 135.335 205.736 135.731 204.381 136.654C203.025 137.578 202.056 138.965 201.658 140.553C201.26 142.141 201.46 143.82 202.22 145.271C202.98 146.722 204.247 147.844 205.782 148.426Z" fill="#FFB8B8"/>
<path d="M256.611 119.058C256.143 119.059 255.682 118.943 255.27 118.719C254.859 118.496 254.51 118.174 254.256 117.781L248.127 108.285C247.741 107.685 247.599 106.961 247.732 106.261C247.864 105.56 248.261 104.937 248.84 104.52L269.348 89.7403C270.343 89.023 271.472 88.5121 272.669 88.2377C273.866 87.9633 275.105 87.931 276.315 88.1426C277.524 88.3543 278.679 88.8057 279.71 89.4701C280.741 90.1344 281.628 90.9983 282.319 92.0106C283.01 93.0228 283.49 94.1629 283.731 95.3634C283.972 96.5639 283.969 97.8004 283.722 98.9997C283.475 100.199 282.99 101.337 282.294 102.346C281.599 103.355 280.708 104.214 279.673 104.874L258.11 118.621C257.663 118.907 257.143 119.059 256.611 119.058Z" fill="#E3E3E3"/>
<path d="M265.768 284.859L258.156 284.858L254.535 255.583L265.77 255.584L265.768 284.859Z" fill="#FFB8B8"/>
<path d="M252.719 282.69H267.399V291.906H243.476C243.476 290.696 243.715 289.497 244.179 288.379C244.644 287.261 245.325 286.245 246.183 285.389C247.041 284.534 248.06 283.855 249.182 283.391C250.303 282.928 251.505 282.69 252.719 282.69Z" fill="#2F2E41"/>
<path d="M301.303 279.184L293.974 281.236L282.551 254.027L293.368 250.999L301.303 279.184Z" fill="#FFB8B8"/>
<path d="M288.152 280.613L302.286 276.657L304.784 285.53L281.751 291.977C281.423 290.812 281.329 289.594 281.473 288.392C281.617 287.19 281.997 286.029 282.591 284.973C283.186 283.918 283.983 282.99 284.937 282.242C285.891 281.494 286.983 280.94 288.152 280.613Z" fill="#2F2E41"/>
<path d="M321.812 234.257L292.261 199.483L310.193 177.787C310.456 177.469 310.786 177.213 311.16 177.038C311.535 176.863 311.943 176.772 312.357 176.774C312.77 176.775 313.178 176.868 313.551 177.045C313.925 177.223 314.254 177.48 314.515 177.8L341.648 211.004L321.812 234.257Z" fill="#FF4E16"/>
<path d="M293.453 199.741C293.889 198.96 294.429 198.24 295.059 197.604L312.175 180.302C312.845 179.62 313.749 179.216 314.705 179.169C316.661 179.077 319.868 179.274 320.762 181.413L297.654 200.265L293.453 199.741Z" fill="#F2F2F2"/>
<path d="M322.839 241.615C321.521 241.576 320.24 241.172 319.14 240.447L319.058 240.363L291.993 199.09L296.484 198.657L320.554 179.937C320.858 179.7 321.207 179.529 321.581 179.434C321.954 179.339 322.343 179.322 322.723 179.384C323.104 179.446 323.467 179.586 323.791 179.795C324.114 180.004 324.391 180.277 324.603 180.597L350.914 220.304C351.318 220.917 351.463 221.664 351.32 222.384C351.176 223.103 350.754 223.737 350.145 224.149L324.685 241.267C324.098 241.5 323.471 241.618 322.839 241.615Z" fill="#FF4E16"/>
<path d="M313.267 213.382C313.012 213.382 312.761 213.32 312.536 213.201C312.312 213.082 312.119 212.91 311.977 212.699L308.868 208.094C308.638 207.753 308.554 207.336 308.633 206.933C308.712 206.53 308.948 206.175 309.289 205.946L325.24 195.238C325.582 195.009 326 194.925 326.404 195.004C326.808 195.083 327.164 195.318 327.394 195.657L330.503 200.263C330.733 200.603 330.817 201.021 330.739 201.424C330.66 201.826 330.424 202.182 330.083 202.411L314.132 213.119C313.876 213.29 313.575 213.382 313.267 213.382Z" fill="#E3E3E3"/>
<path d="M253.33 280.432C252.481 280.428 251.664 280.109 251.039 279.536C250.415 278.963 250.027 278.177 249.954 277.334C248.599 261.99 241.803 184.657 241.058 169.039C240.229 151.687 254.712 124.235 254.859 123.96L254.959 123.772L262.118 124.663V125.494L268.931 126.293L282.118 127.565L285.893 173.575L287.562 204.778L303.245 268.509C303.423 269.215 303.315 269.962 302.945 270.589C302.575 271.216 301.972 271.673 301.267 271.861L287.618 275.572C286.908 275.762 286.152 275.667 285.512 275.307C284.872 274.947 284.4 274.351 284.195 273.647L271.345 228.635C271.282 228.417 271.143 228.23 270.951 228.108C270.76 227.986 270.531 227.937 270.306 227.972C270.082 228.007 269.878 228.122 269.733 228.296C269.587 228.471 269.511 228.692 269.518 228.918L270.877 272.808C270.884 273.259 270.799 273.706 270.626 274.123C270.453 274.539 270.197 274.916 269.873 275.23C266.745 278.16 258.478 279.724 253.829 280.396C253.664 280.42 253.497 280.432 253.33 280.432Z" fill="#E3E3E3"/>
<path d="M294.343 87.0879C292.178 84.8366 277.907 87.9304 274.738 91.2471L253.047 126.601L288.921 133.255L296.846 88.3356L294.343 87.0879Z" fill="#FF4E16"/>
<path d="M284.941 176.909C284.168 176.909 283.401 176.782 282.67 176.532C280.586 175.819 278.032 175.073 275.078 174.316C262.143 170.999 257.576 160.381 261.504 142.755L261.604 142.307C265.292 125.588 272.245 109.756 282.066 95.7135L283.587 93.5346C285.423 90.9058 287.994 88.8731 290.979 87.6892C293.965 86.5054 297.233 86.2225 300.379 86.8758C306.199 88.0728 309.324 89.8074 309.667 92.0316C310.341 96.396 297.34 149.154 291.72 171.635C291.343 173.142 290.471 174.481 289.242 175.437C288.013 176.393 286.499 176.911 284.941 176.909L284.941 176.909Z" fill="#E3E3E3"/>
<path d="M240.38 170.136C240.042 170.136 239.705 170.084 239.383 169.981L235.191 168.644C234.757 168.505 234.357 168.278 234.017 167.977C233.677 167.676 233.403 167.307 233.214 166.895C233.024 166.482 232.923 166.035 232.917 165.581C232.911 165.127 233 164.677 233.179 164.26L255.426 112.192C259.688 102.26 267.141 94.0218 276.612 88.7741H276.612C276.75 88.6988 276.901 88.6523 277.057 88.6378C277.213 88.6232 277.371 88.6408 277.52 88.6895C277.657 88.733 277.783 88.8045 277.89 88.8996C277.998 88.9947 278.084 89.1111 278.144 89.2415C280.76 94.9807 266.519 122.142 255.077 143.966C249.217 155.141 244.157 164.792 243.581 167.544C243.427 168.277 243.025 168.935 242.442 169.407C241.859 169.879 241.131 170.136 240.38 170.136Z" fill="#E3E3E3"/>
<path d="M309.208 182C309.989 181.419 310.633 180.673 311.094 179.817C311.556 178.96 311.823 178.013 311.878 177.042C311.932 176.072 311.773 175.101 311.41 174.198C311.048 173.296 310.491 172.483 309.78 171.818L309.603 109.425L295.298 111.818L299.977 172.427C298.936 173.693 298.396 175.295 298.461 176.931C298.526 178.567 299.19 180.122 300.328 181.302C301.466 182.482 302.998 183.205 304.635 183.334C306.271 183.462 307.898 182.988 309.208 182Z" fill="#FFB8B8"/>
<path d="M297.56 124.904C296.851 124.904 296.169 124.635 295.651 124.152C295.134 123.669 294.82 123.007 294.773 122.302L293.109 97.1262C292.952 94.7039 293.765 92.3182 295.369 90.4926C296.973 88.6669 299.239 87.5504 301.668 87.3877C302.915 87.3058 304.165 87.4786 305.343 87.8956C306.521 88.3125 307.601 88.9648 308.517 89.8125C309.433 90.6602 310.166 91.6855 310.671 92.8255C311.176 93.9655 311.442 95.1963 311.453 96.4424L311.679 121.961C311.685 122.698 311.397 123.407 310.88 123.934C310.363 124.46 309.658 124.761 308.918 124.772L297.594 124.904L297.56 124.904Z" fill="#E3E3E3"/>
<path d="M287.325 81.011C295.747 81.011 302.574 74.2034 302.574 65.8057C302.574 57.408 295.747 50.6003 287.325 50.6003C278.903 50.6003 272.075 57.408 272.075 65.8057C272.075 74.2034 278.903 81.011 287.325 81.011Z" fill="#FFB8B8"/>
<path d="M300.004 76.4454C301.142 72.8364 302.186 68.581 299.935 65.5356C298.313 63.3412 295.401 62.4918 292.67 62.3702C289.939 62.2486 287.2 62.7102 284.475 62.4942C281.75 62.2782 278.87 61.2057 277.485 58.8552C275.69 55.8074 277.211 51.6094 280.097 49.5568C282.982 47.5042 286.795 47.2176 290.307 47.6957C294.752 48.2218 298.93 50.0854 302.285 53.0383C305.55 56.0427 307.678 60.3733 307.583 64.8021C307.488 69.2309 304.997 73.6412 301.027 75.6297" fill="#C7B86D"/>
<path d="M296.202 43.2205C292.551 42.0993 290.867 37.2868 292.5 33.8433C294.133 30.3999 298.306 28.5967 302.095 29.0763C305.885 29.556 309.224 31.9801 311.527 35.0187C313.83 38.0573 315.219 41.6794 316.377 45.3091C317.535 48.9387 318.498 52.6468 320.08 56.1139C322.589 61.4409 326.461 66.0154 331.305 69.378C336.15 72.7405 341.796 74.7725 347.678 75.2699C350.242 75.4551 352.902 75.3224 355.238 74.254C357.575 73.1855 359.534 71.0314 359.796 68.4818C361.126 77.5384 355.841 87.1633 347.474 90.9268C339.106 94.6903 328.372 92.2692 322.444 85.2808C316.65 78.4516 315.753 68.8098 315.893 59.866C315.931 57.4135 316.021 54.9146 315.342 52.5572C314.662 50.1998 313.054 47.9583 310.712 47.2096C308.822 46.6055 306.775 47.0409 304.837 47.4692C302.899 47.8975 300.842 48.3097 298.965 47.6641C297.089 47.0185 295.579 44.8911 296.335 43.0613" fill="#C7B86D"/>
<path d="M356.534 293H192.621C192.456 293 192.298 292.935 192.182 292.819C192.065 292.703 192 292.545 192 292.381C192 292.217 192.065 292.059 192.182 291.943C192.298 291.827 192.456 291.762 192.621 291.762H356.534C356.698 291.762 356.856 291.827 356.973 291.943C357.089 292.059 357.155 292.217 357.155 292.381C357.155 292.545 357.089 292.703 356.973 292.819C356.856 292.935 356.698 293 356.534 293Z" fill="#CCCCCC"/>
<defs>
<clipPath id="clip0_0_1">
<rect width="168" height="293" fill="white"/>
</clipPath>
</defs>
</svg>
